# Blender v2.78 (sub 0) OBJ File: '02cat.blend'
# www.blender.org
mtllib cat.mtl
o Cube.001
v 12.806920 2.185216 11.894468
v 12.806920 2.185193 18.407047
v 8.723402 2.185193 18.407047
v 8.723402 2.185216 11.894468
v 12.806920 16.523972 11.894471
v 8.723402 16.523972 11.894471
v 8.723402 16.523972 18.407049
v 12.806920 16.523972 18.407049
v -7.660810 1.434994 11.474282
v -7.660810 1.434993 17.986862
v -11.744328 1.434993 17.986862
v -11.744328 1.434994 11.474282
v -7.660810 15.773749 11.474285
v -11.744328 15.773749 11.474285
v -11.744328 15.773747 17.986864
v -7.660810 15.773747 17.986864
v 7.004636 21.220753 8.894071
v 7.004636 21.220749 26.704931
v -8.984660 21.220749 26.704931
v -8.984660 21.220753 8.894071
v 7.004636 36.267071 8.894094
v -8.984660 36.267071 8.894073
v -8.984660 36.267067 26.704933
v 7.004636 36.267067 26.704933
v 11.136852 12.135161 -12.405583
v 11.136852 12.135139 12.405611
v -11.136852 12.135139 12.405611
v -11.136852 12.135161 -12.405603
v 11.136852 24.307858 -12.405581
v -11.136852 24.307858 -12.405602
v -11.136852 24.307850 12.405613
v 11.136831 24.307850 12.405613
vn 0.0000 -1.0000 -0.0000
vn 0.0000 1.0000 0.0000
vn 1.0000 -0.0000 0.0000
vn 0.0000 -0.0000 1.0000
vn -1.0000 0.0000 0.0000
vn 0.0000 0.0000 -1.0000
usemtl Material.001
s 1
f 1//1 2//1 3//1 4//1
f 5//2 6//2 7//2 8//2
f 1//3 5//3 8//3 2//3
f 2//4 8//4 7//4 3//4
f 3//5 7//5 6//5 4//5
f 5//6 1//6 4//6 6//6
f 9//1 10//1 11//1 12//1
f 13//2 14//2 15//2 16//2
f 9//3 13//3 16//3 10//3
f 10//4 16//4 15//4 11//4
f 11//5 15//5 14//5 12//5
f 13//6 9//6 12//6 14//6
f 17//1 18//1 19//1 20//1
f 21//2 22//2 23//2 24//2
f 17//3 21//3 24//3 18//3
f 18//4 24//4 23//4 19//4
f 19//5 23//5 22//5 20//5
f 21//6 17//6 20//6 22//6
f 25//1 26//1 27//1 28//1
f 29//2 30//2 31//2 32//2
f 25//3 29//3 32//3 26//3
f 26//4 32//4 31//4 27//4
f 27//5 31//5 30//5 28//5
f 29//6 25//6 28//6 30//6
